<svg xmlns="http://www.w3.org/2000/svg" xmlns:xlink="http://www.w3.org/1999/xlink" width="110" height="92" viewBox="0 0 110 92">
  <defs>
    <clipPath id="clip-path">
      <rect id="Rect치ngulo_67" data-name="Rect치ngulo 67" width="61" height="61" fill="none"/>
    </clipPath>
  </defs>
  <g id="Grupo_146" data-name="Grupo 146" transform="translate(-684 -31)">
    <rect id="Rect치ngulo_95" data-name="Rect치ngulo 95" width="110" height="92" transform="translate(684 31)" fill="none" opacity="0"/>
    <g id="Grupo_147" data-name="Grupo 147" transform="translate(699.219 60.177)">
      <g id="Grupo_104" data-name="Grupo 104" transform="translate(9.781 -13.177)">
        <g id="Grupo_104-2" data-name="Grupo 104" transform="translate(0 0)" clip-path="url(#clip-path)">
          <path id="Trazado_138" data-name="Trazado 138" d="M61.277,30.638A30.638,30.638,0,1,1,30.638,0,30.638,30.638,0,0,1,61.277,30.638" transform="translate(-0.138 -0.138)" fill="#ffc041"/>
          <path id="Trazado_139" data-name="Trazado 139" d="M28.618,45.6a1.976,1.976,0,0,1-1.483-.6,2.017,2.017,0,0,1-.586-1.464V40.711l.93.826a16.556,16.556,0,0,1-4.137-.585,15.977,15.977,0,0,1-2.929-1.138,2.131,2.131,0,0,1-1.05-1.035,2.625,2.625,0,0,1-.224-1.359,2.356,2.356,0,0,1,.481-1.241,1.95,1.95,0,0,1,1.085-.707,2.161,2.161,0,0,1,1.534.276,13.6,13.6,0,0,0,2.31.914,12.207,12.207,0,0,0,3.618.466,7.437,7.437,0,0,0,2.551-.362,2.985,2.985,0,0,0,1.4-.948,2.216,2.216,0,0,0,.429-1.345,2.083,2.083,0,0,0-.293-1.1,2.388,2.388,0,0,0-1-.845,7.492,7.492,0,0,0-1.878-.6L25.586,31.1a8.815,8.815,0,0,1-4.723-2.361,6.105,6.105,0,0,1-1.551-4.325,6.79,6.79,0,0,1,1.016-3.687A7.6,7.6,0,0,1,23.153,18.1,10.558,10.558,0,0,1,27.409,16.9l-.86.551V14.829a2.016,2.016,0,0,1,.586-1.464,1.978,1.978,0,0,1,1.483-.6,1.938,1.938,0,0,1,1.446.6,2.025,2.025,0,0,1,.586,1.464v2.619l-.862-.622a13.713,13.713,0,0,1,3.05.535,9.164,9.164,0,0,1,2.843,1.328,2.245,2.245,0,0,1,.914,1.034,2.128,2.128,0,0,1,.137,1.24A2.256,2.256,0,0,1,36.2,22.05a1.837,1.837,0,0,1-1.085.586,2.561,2.561,0,0,1-1.568-.329,12.569,12.569,0,0,0-2.033-.759,10.246,10.246,0,0,0-2.723-.31,5.226,5.226,0,0,0-3.153.828A2.544,2.544,0,0,0,24.515,24.2a1.96,1.96,0,0,0,.672,1.551,5.579,5.579,0,0,0,2.362.965l3.825.827a9.433,9.433,0,0,1,4.843,2.344,5.794,5.794,0,0,1,1.568,4.2,6.55,6.55,0,0,1-1,3.6,7.438,7.438,0,0,1-2.756,2.535,11.191,11.191,0,0,1-4.1,1.239l.725-.792v2.861A2.058,2.058,0,0,1,30.081,45a1.92,1.92,0,0,1-1.463.6" transform="translate(2.044 1.318)" fill="#fff"/>
        </g>
      </g>
    </g>
  </g>
</svg>
