<svg xmlns="http://www.w3.org/2000/svg" width="110" height="92" viewBox="0 0 110 92">
  <g id="Grupo_144" data-name="Grupo 144" transform="translate(-684 -31)">
    <rect id="Rectángulo_95" data-name="Rectángulo 95" width="110" height="92" transform="translate(684 31)" fill="none" opacity="0"/>
    <g id="Grupo_145" data-name="Grupo 145" transform="translate(689.234 57.031)">
      <path id="Trazado_119" data-name="Trazado 119" d="M61.737,80.255,40.8,52.193a.5.5,0,0,0-.4-.2H21.775a.72.72,0,0,0-.575.288L.1,80.253a.511.511,0,0,0,.4.82H3.692a.5.5,0,0,0,.4-.2L23.233,55.491a.5.5,0,0,1,.8,0L42.967,80.87a.5.5,0,0,0,.4.2H61.334a.511.511,0,0,0,.4-.818" transform="translate(0 -41.134)" fill="#2a58e2"/>
      <path id="Trazado_120" data-name="Trazado 120" d="M236.321,39.121,207.291.2a.5.5,0,0,0-.4-.2H181.164a.866.866,0,0,0-.691.346l-7.937,10.51h4.757a.5.5,0,0,1,.4.2l.4.537,5.27-6.989a.5.5,0,0,1,.8,0l26.2,35.126a.5.5,0,0,0,.4.2h25.141a.511.511,0,0,0,.4-.818" transform="translate(-136.891)" fill="#ffc041"/>
      <path id="Trazado_121" data-name="Trazado 121" d="M88.485,135.036H84.714a.508.508,0,0,1-.5-.51v-3.811a.508.508,0,0,1,.5-.51h3.771a.508.508,0,0,1,.5.51v3.811a.508.508,0,0,1-.5.51" transform="translate(-66.812 -103.016)" fill="#2a58e2"/>
      <path id="Trazado_122" data-name="Trazado 122" d="M125.359,135.036h-3.771a.508.508,0,0,1-.5-.51v-3.811a.508.508,0,0,1,.5-.51h3.771a.508.508,0,0,1,.5.51v3.811a.508.508,0,0,1-.5.51" transform="translate(-96.068 -103.016)" fill="#2a58e2"/>
      <path id="Trazado_123" data-name="Trazado 123" d="M88.485,171.909H84.714a.508.508,0,0,1-.5-.51v-3.811a.508.508,0,0,1,.5-.51h3.771a.508.508,0,0,1,.5.51V171.4a.508.508,0,0,1-.5.51" transform="translate(-66.812 -132.19)" fill="#2a58e2"/>
      <path id="Trazado_124" data-name="Trazado 124" d="M125.359,171.909h-3.771a.508.508,0,0,1-.5-.51v-3.811a.508.508,0,0,1,.5-.51h3.771a.508.508,0,0,1,.5.51V171.4a.508.508,0,0,1-.5.51" transform="translate(-96.068 -132.19)" fill="#2a58e2"/>
    </g>
  </g>
</svg>
