<svg xmlns="http://www.w3.org/2000/svg" width="110" height="92" viewBox="0 0 110 92">
  <g id="Grupo_143" data-name="Grupo 143" transform="translate(-684 -31)">
    <g id="Grupo_76" data-name="Grupo 76" transform="translate(711.53 53.873)">
      <path id="Trazado_125" data-name="Trazado 125" d="M66.245,36.674a5.669,5.669,0,0,0-3.691-4.794q-5.538-2.3-11.1-4.52a.664.664,0,0,1-.488-.679c-.052-1.22-.138-2.439-.2-3.659a.771.771,0,0,1,.114-.494A13.241,13.241,0,0,0,53.029,18.6c.1-.254.19-.416.511-.433a.8.8,0,0,0,.769-.681c.26-1.084.541-2.164.806-3.247a.876.876,0,0,0-.489-1.132.864.864,0,0,0-.1-.034.393.393,0,0,1-.3-.454c.018-.412,0-.824,0-1.215l0,0S54.475,0,45.29,0,36.35,11.4,36.35,11.4l0,0c0,.39-.013.8,0,1.215a.393.393,0,0,1-.3.454.863.863,0,0,0-.1.034.876.876,0,0,0-.489,1.132c.265,1.083.546,2.163.806,3.247a.8.8,0,0,0,.769.681c.32.017.413.179.511.433A13.242,13.242,0,0,0,39.7,22.529a.774.774,0,0,1,.114.494c-.058,1.22-.143,2.439-.2,3.659a.664.664,0,0,1-.488.679q-5.559,2.236-11.1,4.52a5.669,5.669,0,0,0-3.691,4.794c-.21,1.771-.239,3.565-.33,5.349a.467.467,0,0,0,.231.349,12.327,12.327,0,0,0,1.269.516,60.778,60.778,0,0,0,18.8,3.362c.327.006.653,0,.98,0s.653,0,.98,0a60.778,60.778,0,0,0,18.8-3.362,12.37,12.37,0,0,0,1.269-.516.467.467,0,0,0,.231-.349c-.091-1.784-.119-3.578-.33-5.349" transform="translate(-12.584)" fill="#2a58e2"/>
      <path id="Trazado_126" data-name="Trazado 126" d="M8.44,39.428a9.071,9.071,0,0,1,5.8-7.565c3.038-1.26,6.1-2.5,8.887-3.627-.466-.188-.933-.378-1.4-.566a.527.527,0,0,1-.386-.537c-.041-.966-.109-1.93-.155-2.9a.612.612,0,0,1,.09-.391c.1-.13.2-.269.293-.4a4.172,4.172,0,0,1-1.139-2.125c-.141-.588-.289-1.174-.436-1.761q-.157-.623-.311-1.247a4.287,4.287,0,0,1,.753-3.95,20.169,20.169,0,0,1,1.124-6.415,6.118,6.118,0,0,0-4.711-1.93c-7.271,0-7.076,9.025-7.076,9.025h0c0,.309-.01.636,0,.962a.311.311,0,0,1-.239.36.706.706,0,0,0-.082.026.693.693,0,0,0-.387.9c.21.857.432,1.711.638,2.57a.635.635,0,0,0,.609.54c.254.013.327.141.4.342a10.474,10.474,0,0,0,1.7,3.11.612.612,0,0,1,.09.391c-.046.966-.113,1.93-.155,2.9a.526.526,0,0,1-.386.537q-4.4,1.77-8.788,3.578A4.487,4.487,0,0,0,.261,35.042C.095,36.444.072,37.864,0,39.276a.37.37,0,0,0,.183.276,9.741,9.741,0,0,0,1,.409,48.19,48.19,0,0,0,7.054,1.862c.045-.788.1-1.586.2-2.4" transform="translate(0 -3.121)" fill="#ffc041"/>
    </g>
    <rect id="Rectángulo_95" data-name="Rectángulo 95" width="110" height="92" transform="translate(684 31)" fill="none" opacity="0"/>
  </g>
</svg>
