<svg xmlns="http://www.w3.org/2000/svg" width="169" height="121" viewBox="0 0 169 121">
  <g id="Grupo_354" data-name="Grupo 354" transform="translate(-1166 -285)">
    <rect id="Rectángulo_145" data-name="Rectángulo 145" width="169" height="121" transform="translate(1166 285)" fill="none"/>
    <g id="Grupo_86" data-name="Grupo 86" transform="translate(1216.82 299.841)">
      <g id="Grupo_83" data-name="Grupo 83" transform="translate(0 32.701)">
        <path id="Trazado_97" data-name="Trazado 97" d="M55.592,148.116H6.83a4.393,4.393,0,0,1-4.258-5.476l8.554-33.652a4.4,4.4,0,0,1,4.258-3.31H64.146a4.393,4.393,0,0,1,4.258,5.476l-8.554,33.652A4.394,4.394,0,0,1,55.592,148.116Z" transform="translate(-1.18 -92.637)" fill="#2a58e3"/>
        <path id="Trazado_98" data-name="Trazado 98" d="M62.7,114.742v-1.907a4.4,4.4,0,0,0-4.393-4.393H25.039a4.39,4.39,0,0,1-3.538-1.787l-1.887-2.56a4.387,4.387,0,0,0-3.535-1.79H6.5A4.4,4.4,0,0,0,2.11,106.7v46.692A4.4,4.4,0,0,0,6.5,157.784H50.964" transform="translate(-2.11 -102.305)" fill="#2b57e3" opacity="0.428"/>
      </g>
      <g id="Grupo_85" data-name="Grupo 85" transform="translate(17.031)">
        <line id="Línea_8" data-name="Línea 8" y1="28.333" transform="translate(16.915 0.265)" fill="none" stroke="#2a58e2" stroke-linecap="round" stroke-linejoin="round" stroke-width="3"/>
        <path id="Trazado_131" data-name="Trazado 131" d="M0,0,16.65,16.65,0,33.3" transform="translate(0 16.65) rotate(-90)" fill="none" stroke="#2a58e2" stroke-linecap="round" stroke-linejoin="round" stroke-width="3"/>
      </g>
    </g>
  </g>
</svg>
