<svg xmlns="http://www.w3.org/2000/svg" width="169" height="121" viewBox="0 0 169 121">
  <g id="Grupo_353" data-name="Grupo 353" transform="translate(-848 -285)">
    <rect id="Rectángulo_144" data-name="Rectángulo 144" width="169" height="121" transform="translate(848 285)" fill="none"/>
    <g id="Grupo_80" data-name="Grupo 80" transform="translate(871.673 316.826)">
      <path id="Trazado_119" data-name="Trazado 119" d="M120.453,106.553l-40.84-54.17a.985.985,0,0,0-.787-.392H42.484a1.41,1.41,0,0,0-1.121.555L.2,106.549a.985.985,0,0,0,.784,1.582H7.2a.986.986,0,0,0,.784-.388l37.342-49a.985.985,0,0,1,1.57,0l36.932,48.987a.986.986,0,0,0,.787.392h35.048a.985.985,0,0,0,.787-1.578" transform="translate(0 -51.99)" fill="#2a58e2"/>
      <path id="Trazado_121" data-name="Trazado 121" d="M92.551,139.531H85.194a.985.985,0,0,1-.985-.985v-7.357a.985.985,0,0,1,.985-.985h7.357a.985.985,0,0,1,.985.985v7.357a.985.985,0,0,1-.985.985" transform="translate(-50.266 -98.677)" fill="#2a58e2"/>
      <path id="Trazado_122" data-name="Trazado 122" d="M129.425,139.531h-7.357a.985.985,0,0,1-.985-.985v-7.357a.985.985,0,0,1,.985-.985h7.357a.985.985,0,0,1,.985.985v7.357a.985.985,0,0,1-.985.985" transform="translate(-72.277 -98.677)" fill="#2a58e2"/>
      <path id="Trazado_123" data-name="Trazado 123" d="M92.551,176.4H85.194a.985.985,0,0,1-.985-.985v-7.357a.985.985,0,0,1,.985-.985h7.357a.985.985,0,0,1,.985.985v7.357a.985.985,0,0,1-.985.985" transform="translate(-50.266 -120.688)" fill="#2a58e2"/>
      <path id="Trazado_124" data-name="Trazado 124" d="M129.425,176.4h-7.357a.985.985,0,0,1-.985-.985v-7.357a.985.985,0,0,1,.985-.985h7.357a.985.985,0,0,1,.985.985v7.357a.985.985,0,0,1-.985.985" transform="translate(-72.277 -120.688)" fill="#2a58e2"/>
    </g>
  </g>
</svg>
