<svg width="372" height="83" viewBox="0 0 372 83" fill="none" xmlns="http://www.w3.org/2000/svg">
<path d="M180.395 36.1864L181.848 33.8628L172.905 18.7555L166.496 29.5829L172.245 39.2936L180.395 36.1864Z" fill="#F1A506"/>
<path d="M223.009 39.2938L208.995 14.6544L202.586 25.4811L210.192 39.2938H223.009Z" fill="#F1A506"/>
<path d="M170.692 0.841553L147.93 39.2944H160.749L183.509 0.841553H170.692Z" fill="#063BD9"/>
<path d="M192.973 0.841553L170.212 39.2944H183.03L205.79 0.841553H192.973Z" fill="#083FE5"/>
<path d="M16.2317 54.7359C16.3854 54.5821 16.5796 54.5052 16.8141 54.5052C17.0316 54.5052 17.2218 54.5821 17.3849 54.7359C17.548 54.8904 17.6296 55.0846 17.6296 55.3199V74.9012C17.6296 75.1373 17.548 75.3323 17.3849 75.4853C17.2218 75.6398 17.0316 75.7167 16.8141 75.7167C16.5609 75.7167 16.3614 75.6351 16.2169 75.472L2.39333 57.4929V74.9012C2.39333 75.1373 2.31722 75.3323 2.16345 75.4853C2.00891 75.6398 1.81475 75.7167 1.57867 75.7167C1.34413 75.7167 1.1492 75.6398 0.995436 75.4853C0.841668 75.3323 0.764008 75.1373 0.764008 74.9012V55.3199C0.764008 55.0846 0.841668 54.8904 0.995436 54.7359C1.1492 54.5821 1.34413 54.5052 1.57867 54.5052C1.83184 54.5052 2.03997 54.5961 2.20383 54.7771L16.0002 72.7291V55.3199C16.0002 55.0846 16.0763 54.8904 16.2317 54.7359Z" fill="#0000A3"/>
<path d="M33.8707 61.6889C35.0294 62.3498 35.9388 63.2599 36.6005 64.4179C37.2614 65.5773 37.5914 66.8719 37.5914 68.3017V74.9013C37.5914 75.1373 37.5192 75.3323 37.3747 75.4853C37.2295 75.6398 37.0299 75.7167 36.7768 75.7167C36.5414 75.7167 36.3465 75.6398 36.1927 75.4853C36.039 75.3323 35.9621 75.1373 35.9621 74.9013V72.7835C35.3649 73.7433 34.5448 74.499 33.5041 75.0511C32.4627 75.6033 31.2993 75.8798 30.0141 75.8798C28.5836 75.8798 27.289 75.549 26.1303 74.8881C24.9716 74.2272 24.0614 73.3178 23.4005 72.1591C22.7396 70.9996 22.4095 69.7143 22.4095 68.3017C22.4095 66.8719 22.7396 65.5773 23.4005 64.4179C24.0614 63.2599 24.9716 62.3498 26.1303 61.6889C27.289 61.028 28.5836 60.6971 30.0141 60.6971C31.4267 60.6971 32.712 61.028 33.8707 61.6889ZM33.056 73.5709C33.9616 73.046 34.6721 72.3214 35.1878 71.398C35.7043 70.4746 35.9621 69.4425 35.9621 68.3017C35.9621 67.1616 35.7043 66.1295 35.1878 65.2061C34.6721 64.2827 33.9616 63.5543 33.056 63.02C32.1505 62.4857 31.1363 62.2185 30.0141 62.2185C28.8911 62.2185 27.8776 62.4857 26.9729 63.02C26.0666 63.5543 25.3521 64.2827 24.8271 65.2061C24.3014 66.1295 24.0396 67.1616 24.0396 68.3017C24.0396 69.4425 24.3014 70.4746 24.8271 71.398C25.3521 72.3214 26.0666 73.046 26.9729 73.5709C27.8776 74.0959 28.8911 74.3584 30.0141 74.3584C31.1363 74.3584 32.1505 74.0959 33.056 73.5709Z" fill="#0000A3"/>
<path d="M49.4191 74.2909C49.5729 74.4446 49.6498 74.6481 49.6498 74.9021C49.6498 75.1374 49.5729 75.3323 49.4191 75.4861C49.2654 75.6398 49.0619 75.7167 48.8079 75.7167H48.1835C47.1872 75.7167 46.3003 75.4907 45.5213 75.0372C44.7432 74.5852 44.1367 73.9647 43.7025 73.1772C43.2676 72.3897 43.0502 71.4982 43.0502 70.5026V62.8701H40.9316C40.7149 62.8701 40.5379 62.8025 40.4027 62.6666C40.2661 62.5307 40.1985 62.3544 40.1985 62.137C40.1985 61.9195 40.2661 61.7432 40.4027 61.6073C40.5379 61.4722 40.7149 61.4039 40.9316 61.4039H43.0502V56.9772C43.0502 56.7233 43.1271 56.5198 43.2808 56.366C43.4346 56.2123 43.6295 56.1354 43.8648 56.1354C44.118 56.1354 44.3223 56.2123 44.476 56.366C44.6298 56.5198 44.7075 56.7233 44.7075 56.9772V61.4039H48.2923C48.5097 61.4039 48.686 61.4722 48.8211 61.6073C48.957 61.7432 49.0254 61.9195 49.0254 62.137C49.0254 62.3544 48.957 62.5307 48.8211 62.6666C48.686 62.8025 48.5097 62.8701 48.2923 62.8701H44.7075V70.5026C44.7075 71.5526 45.0329 72.4076 45.6844 73.0685C46.3368 73.7294 47.1786 74.0602 48.2107 74.0602H48.8079C49.0619 74.0602 49.2654 74.1371 49.4191 74.2909Z" fill="#0000A3"/>
<path d="M55.7205 55.5374C55.9636 55.7548 56.0871 56.0623 56.0871 56.4607C56.0871 56.8226 55.9636 57.1263 55.7205 57.3709C55.4759 57.6148 55.1722 57.7375 54.8096 57.7375C54.4477 57.7375 54.1494 57.6148 53.9134 57.3709C53.678 57.1263 53.56 56.8226 53.56 56.4607C53.56 56.0623 53.6866 55.7548 53.9413 55.5374C54.1937 55.3199 54.4935 55.2112 54.8375 55.2112C55.18 55.2112 55.4759 55.3199 55.7205 55.5374ZM54.2535 61.0777C54.4073 60.9324 54.6022 60.8602 54.8375 60.8602C55.0899 60.8602 55.2895 60.9324 55.4339 61.0777C55.5792 61.2229 55.6514 61.4217 55.6514 61.6756V74.9012C55.6514 75.1373 55.5792 75.3315 55.4339 75.4852C55.2895 75.639 55.0899 75.7167 54.8375 75.7167C54.6022 75.7167 54.4073 75.639 54.2535 75.4852C54.099 75.3315 54.0221 75.1373 54.0221 74.9012V61.6756C54.0221 61.4217 54.099 61.2229 54.2535 61.0777Z" fill="#0000A3"/>
<path d="M72.1651 61.6896C73.3238 62.3505 74.2332 63.2599 74.8941 64.4186C75.555 65.5773 75.8858 66.8719 75.8858 68.3024C75.8858 69.715 75.555 71.0003 74.8941 72.159C74.2332 73.3177 73.3238 74.2279 72.1651 74.8888C71.0057 75.5497 69.7204 75.8797 68.3085 75.8797C66.878 75.8797 65.5834 75.5497 64.4247 74.8888C63.2652 74.2279 62.3558 73.3177 61.6949 72.159C61.034 71.0003 60.704 69.715 60.704 68.3024C60.704 66.8719 61.034 65.5773 61.6949 64.4186C62.3558 63.2599 63.2652 62.3505 64.4247 61.6896C65.5834 61.0287 66.878 60.6979 68.3085 60.6979C69.7204 60.6979 71.0057 61.0287 72.1651 61.6896ZM65.2665 63.0199C64.361 63.5542 63.6458 64.2827 63.1208 65.2061C62.5958 66.1295 62.3333 67.1616 62.3333 68.3024C62.3333 69.4432 62.5958 70.4753 63.1208 71.3987C63.6458 72.3221 64.361 73.0467 65.2665 73.5709C66.1721 74.0967 67.1855 74.3591 68.3085 74.3591C69.4307 74.3591 70.4442 74.0967 71.3497 73.5709C72.2552 73.0467 72.9658 72.3221 73.4823 71.3987C73.9979 70.4753 74.2558 69.4432 74.2558 68.3024C74.2558 67.1616 73.9979 66.1295 73.4823 65.2061C72.9658 64.2827 72.2552 63.5542 71.3497 63.0199C70.4442 62.4864 69.4307 62.2185 68.3085 62.2185C67.1855 62.2185 66.1721 62.4864 65.2665 63.0199Z" fill="#0000A3"/>
<path d="M90.7275 61.4853C91.7682 62.0289 92.5836 62.8211 93.1715 63.8617C93.7602 64.9032 94.0545 66.1481 94.0545 67.5964V74.9019C94.0545 75.1373 93.9776 75.3322 93.8239 75.486C93.6701 75.6397 93.4752 75.7166 93.2399 75.7166C93.0045 75.7166 92.8096 75.6397 92.6558 75.486C92.5021 75.3322 92.4252 75.1373 92.4252 74.9019V67.5964C92.4252 65.8762 91.9406 64.5638 90.9714 63.6582C90.003 62.7527 88.7402 62.3 87.1831 62.3C86.2232 62.3 85.3503 62.4864 84.5628 62.8568C83.7746 63.228 83.1549 63.7445 82.7021 64.4053C82.2493 65.0662 82.0233 65.7947 82.0233 66.5915V74.9019C82.0233 75.1373 81.9503 75.3322 81.8059 75.486C81.6607 75.6397 81.4619 75.7166 81.2087 75.7166C80.9726 75.7166 80.7777 75.6397 80.6247 75.486C80.4701 75.3322 80.3932 75.1373 80.3932 74.9019V61.6756C80.3932 61.4224 80.4701 61.2236 80.6247 61.0784C80.7777 60.9331 80.9726 60.8609 81.2087 60.8609C81.4619 60.8609 81.6607 60.9331 81.8059 61.0784C81.9503 61.2236 82.0233 61.4224 82.0233 61.6756V63.0874C82.6384 62.3271 83.3902 61.7346 84.2771 61.309C85.1639 60.8834 86.1331 60.6707 87.1831 60.6707C88.5049 60.6707 89.6861 60.9425 90.7275 61.4853Z" fill="#0000A3"/>
<path d="M109.752 61.6889C110.911 62.3498 111.82 63.2599 112.482 64.4179C113.143 65.5773 113.473 66.8719 113.473 68.3017V74.9013C113.473 75.1373 113.401 75.3323 113.256 75.4853C113.111 75.6398 112.911 75.7167 112.658 75.7167C112.423 75.7167 112.228 75.6398 112.074 75.4853C111.92 75.3323 111.843 75.1373 111.843 74.9013V72.7835C111.246 73.7433 110.426 74.499 109.385 75.0511C108.344 75.6033 107.181 75.8798 105.895 75.8798C104.465 75.8798 103.17 75.549 102.012 74.8881C100.853 74.2272 99.9427 73.3178 99.2818 72.1591C98.621 70.9996 98.2909 69.7143 98.2909 68.3017C98.2909 66.8719 98.621 65.5773 99.2818 64.4179C99.9427 63.2599 100.853 62.3498 102.012 61.6889C103.17 61.028 104.465 60.6971 105.895 60.6971C107.308 60.6971 108.593 61.028 109.752 61.6889ZM108.937 73.5709C109.843 73.046 110.553 72.3214 111.069 71.398C111.586 70.4746 111.843 69.4425 111.843 68.3017C111.843 67.1616 111.586 66.1295 111.069 65.2061C110.553 64.2827 109.843 63.5543 108.937 63.02C108.032 62.4857 107.018 62.2185 105.895 62.2185C104.772 62.2185 103.759 62.4857 102.854 63.02C101.948 63.5543 101.233 64.2827 100.708 65.2061C100.183 66.1295 99.921 67.1616 99.921 68.3017C99.921 69.4425 100.183 70.4746 100.708 71.398C101.233 72.3214 101.948 73.046 102.854 73.5709C103.759 74.0959 104.772 74.3584 105.895 74.3584C107.018 74.3584 108.032 74.0959 108.937 73.5709Z" fill="#0000A3"/>
<path d="M117.668 54.7227C117.822 54.5775 118.017 54.5052 118.252 54.5052C118.505 54.5052 118.704 54.5775 118.849 54.7227C118.994 54.8679 119.067 55.0667 119.067 55.3199V71.2349C119.067 72.0682 119.243 72.7516 119.596 73.2859C119.95 73.8202 120.406 74.0874 120.968 74.0874H121.647C121.846 74.0874 122.008 74.1596 122.136 74.304C122.262 74.4493 122.326 74.6481 122.326 74.9012C122.326 75.1373 122.253 75.3323 122.109 75.4853C121.963 75.6398 121.765 75.7167 121.511 75.7167H120.968C119.936 75.7167 119.089 75.3004 118.428 74.4671C117.767 73.6346 117.437 72.5567 117.437 71.2349V55.3199C117.437 55.0667 117.514 54.8679 117.668 54.7227Z" fill="#0000A3"/>
<path d="M150.028 54.7227C150.154 54.8679 150.218 55.0582 150.218 55.2927C150.218 55.4923 150.181 55.6733 150.109 55.8364L141.989 75.2002C141.826 75.5451 141.581 75.7167 141.256 75.7167C141.074 75.7167 140.925 75.6755 140.807 75.594C140.69 75.5132 140.594 75.382 140.522 75.2002L132.375 55.8364C132.284 55.601 132.239 55.4108 132.239 55.2655C132.239 55.0302 132.32 54.8446 132.483 54.7087C132.646 54.5736 132.845 54.5052 133.08 54.5052C133.261 54.5052 133.415 54.5503 133.542 54.6412C133.669 54.732 133.777 54.8765 133.868 55.0761L141.282 72.8378L148.616 55.184C148.706 54.9495 148.824 54.7771 148.968 54.6683C149.113 54.5596 149.294 54.5052 149.512 54.5052C149.729 54.5052 149.901 54.5775 150.028 54.7227Z" fill="#0000A3"/>
<path d="M155.881 55.5374C156.125 55.7548 156.247 56.0623 156.247 56.4607C156.247 56.8226 156.125 57.1263 155.881 57.3709C155.636 57.6148 155.333 57.7375 154.971 57.7375C154.608 57.7375 154.31 57.6148 154.074 57.3709C153.839 57.1263 153.721 56.8226 153.721 56.4607C153.721 56.0623 153.848 55.7548 154.102 55.5374C154.355 55.3199 154.654 55.2112 154.998 55.2112C155.341 55.2112 155.636 55.3199 155.881 55.5374ZM154.414 61.0777C154.568 60.9324 154.763 60.8602 154.998 60.8602C155.251 60.8602 155.45 60.9324 155.595 61.0777C155.74 61.2229 155.813 61.4217 155.813 61.6756V74.9012C155.813 75.1373 155.74 75.3315 155.595 75.4852C155.45 75.639 155.251 75.7167 154.998 75.7167C154.763 75.7167 154.568 75.639 154.414 75.4852C154.26 75.3315 154.183 75.1373 154.183 74.9012V61.6756C154.183 61.4217 154.26 61.2229 154.414 61.0777Z" fill="#0000A3"/>
<path d="M170.044 61.5941C170.044 61.6849 170.035 61.7572 170.017 61.8115C169.962 62.0111 169.876 62.1509 169.759 62.2325C169.641 62.314 169.482 62.3544 169.284 62.3544C169.12 62.3544 168.908 62.3365 168.645 62.3C168.383 62.2643 168.161 62.2457 167.98 62.2457C167.074 62.2457 166.269 62.4359 165.563 62.8165C164.857 63.1962 164.304 63.722 163.906 64.3914C163.507 65.0616 163.308 65.8134 163.308 66.6451V74.902C163.308 75.1373 163.236 75.3322 163.091 75.486C162.946 75.6398 162.747 75.7167 162.494 75.7167C162.258 75.7167 162.063 75.6398 161.91 75.486C161.756 75.3322 161.679 75.1373 161.679 74.902V61.6756C161.679 61.4225 161.756 61.2229 161.91 61.0776C162.063 60.9332 162.258 60.861 162.494 60.861C162.747 60.861 162.946 60.9332 163.091 61.0776C163.236 61.2229 163.308 61.4225 163.308 61.6756V63.3593C163.833 62.5268 164.504 61.8752 165.318 61.4038C166.133 60.9332 167.02 60.6979 167.98 60.6979C169.356 60.6979 170.044 60.9961 170.044 61.5941Z" fill="#0000A3"/>
<path d="M181.328 74.2909C181.482 74.4446 181.559 74.6481 181.559 74.9021C181.559 75.1374 181.482 75.3323 181.328 75.4861C181.174 75.6398 180.971 75.7167 180.717 75.7167H180.092C179.096 75.7167 178.209 75.4907 177.43 75.0372C176.652 74.5852 176.045 73.9647 175.611 73.1772C175.176 72.3897 174.959 71.4982 174.959 70.5026V62.8701H172.84C172.624 62.8701 172.447 62.8025 172.312 62.6666C172.175 62.5307 172.107 62.3544 172.107 62.137C172.107 61.9195 172.175 61.7432 172.312 61.6073C172.447 61.4722 172.624 61.4039 172.84 61.4039H174.959V56.9772C174.959 56.7233 175.036 56.5198 175.19 56.366C175.343 56.2123 175.538 56.1354 175.774 56.1354C176.027 56.1354 176.231 56.2123 176.385 56.366C176.539 56.5198 176.616 56.7233 176.616 56.9772V61.4039H180.201C180.419 61.4039 180.595 61.4722 180.73 61.6073C180.866 61.7432 180.934 61.9195 180.934 62.137C180.934 62.3544 180.866 62.5307 180.73 62.6666C180.595 62.8025 180.419 62.8701 180.201 62.8701H176.616V70.5026C176.616 71.5526 176.942 72.4076 177.593 73.0685C178.246 73.7294 179.087 74.0602 180.12 74.0602H180.717C180.971 74.0602 181.174 74.1371 181.328 74.2909Z" fill="#0000A3"/>
<path d="M198.561 61.0777C198.706 61.2229 198.778 61.4217 198.778 61.6757V74.9013C198.778 75.1373 198.706 75.3315 198.561 75.4853C198.416 75.639 198.217 75.7167 197.964 75.7167C197.728 75.7167 197.533 75.639 197.38 75.4853C197.226 75.3315 197.149 75.1373 197.149 74.9013V73.4894C196.533 74.2497 195.781 74.843 194.894 75.2678C194.007 75.6942 193.038 75.9062 191.988 75.9062C190.667 75.9062 189.485 75.6352 188.444 75.0915C187.402 74.5487 186.588 73.7565 186 72.7151C185.411 71.6745 185.117 70.4296 185.117 68.9812V61.6757C185.117 61.4404 185.194 61.2454 185.348 61.0917C185.502 60.9379 185.696 60.8602 185.932 60.8602C186.167 60.8602 186.362 60.9379 186.516 61.0917C186.669 61.2454 186.747 61.4404 186.747 61.6757V68.9812C186.747 70.7014 187.231 72.0138 188.2 72.9194C189.169 73.8249 190.431 74.2769 191.988 74.2769C192.947 74.2769 193.821 74.0913 194.609 73.72C195.397 73.3496 196.017 72.8332 196.469 72.1723C196.922 71.5114 197.149 70.7829 197.149 69.9861V61.6757C197.149 61.4217 197.226 61.2229 197.38 61.0777C197.533 60.9325 197.728 60.8602 197.964 60.8602C198.217 60.8602 198.416 60.9325 198.561 61.0777Z" fill="#0000A3"/>
<path d="M214.748 61.6889C215.906 62.3498 216.816 63.2599 217.477 64.4179C218.137 65.5773 218.468 66.8719 218.468 68.3017V74.9013C218.468 75.1373 218.395 75.3323 218.251 75.4853C218.106 75.6398 217.907 75.7167 217.654 75.7167C217.418 75.7167 217.223 75.6398 217.07 75.4853C216.915 75.3323 216.838 75.1373 216.838 74.9013V72.7835C216.241 73.7433 215.422 74.499 214.38 75.0511C213.339 75.6033 212.176 75.8798 210.891 75.8798C209.46 75.8798 208.166 75.549 207.007 74.8881C205.848 74.2272 204.938 73.3178 204.277 72.1591C203.617 70.9996 203.286 69.7143 203.286 68.3017C203.286 66.8719 203.617 65.5773 204.277 64.4179C204.938 63.2599 205.848 62.3498 207.007 61.6889C208.166 61.028 209.46 60.6971 210.891 60.6971C212.303 60.6971 213.589 61.028 214.748 61.6889ZM213.932 73.5709C214.838 73.046 215.548 72.3214 216.065 71.398C216.58 70.4746 216.838 69.4425 216.838 68.3017C216.838 67.1616 216.58 66.1295 216.065 65.2061C215.548 64.2827 214.838 63.5543 213.932 63.02C213.027 62.4857 212.013 62.2185 210.891 62.2185C209.768 62.2185 208.755 62.4857 207.849 63.02C206.943 63.5543 206.228 64.2827 205.703 65.2061C205.178 66.1295 204.916 67.1616 204.916 68.3017C204.916 69.4425 205.178 70.4746 205.703 71.398C206.228 72.3214 206.943 73.046 207.849 73.5709C208.755 74.0959 209.768 74.3584 210.891 74.3584C212.013 74.3584 213.027 74.0959 213.932 73.5709Z" fill="#0000A3"/>
<path d="M222.663 54.7227C222.817 54.5775 223.012 54.5052 223.247 54.5052C223.501 54.5052 223.7 54.5775 223.845 54.7227C223.99 54.8679 224.062 55.0667 224.062 55.3199V71.2349C224.062 72.0682 224.238 72.7516 224.592 73.2859C224.945 73.8202 225.402 74.0874 225.963 74.0874H226.642C226.842 74.0874 227.005 74.1596 227.131 74.304C227.258 74.4493 227.322 74.6481 227.322 74.9012C227.322 75.1373 227.249 75.3323 227.104 75.4853C226.959 75.6398 226.759 75.7167 226.506 75.7167H225.963C224.931 75.7167 224.085 75.3004 223.424 74.4671C222.763 73.6346 222.433 72.5567 222.433 71.2349V55.3199C222.433 55.0667 222.51 54.8679 222.663 54.7227Z" fill="#0000A3"/>
<path d="M255.43 74.9012C255.43 75.1187 255.349 75.309 255.185 75.472C255.023 75.6351 254.833 75.7167 254.615 75.7167C254.253 75.7167 254 75.5443 253.855 75.2002L251.845 70.3931H240.791L238.781 75.2002C238.655 75.5443 238.401 75.7167 238.022 75.7167C237.768 75.7167 237.569 75.6351 237.424 75.472C237.279 75.309 237.206 75.1187 237.206 74.9012C237.206 74.7754 237.233 74.6574 237.289 74.5487L245.517 55.0761C245.662 54.6955 245.925 54.5052 246.305 54.5052C246.667 54.5052 246.93 54.6955 247.093 55.0761L255.349 74.5487C255.404 74.6574 255.43 74.7754 255.43 74.9012ZM251.221 68.9268L246.305 57.1939L241.416 68.9268H251.221Z" fill="#0000A3"/>
<path d="M272.269 54.7234C272.414 54.8679 272.487 55.0667 272.487 55.3206V68.3839V68.4383C272.468 69.8331 272.124 71.0997 271.455 72.2405C270.784 73.3814 269.875 74.2729 268.725 74.916C267.575 75.559 266.303 75.8797 264.909 75.8797C263.478 75.8797 262.183 75.5497 261.026 74.8888C259.867 74.2279 258.957 73.3177 258.296 72.159C257.635 71.0003 257.305 69.7057 257.305 68.2752C257.305 66.8626 257.635 65.578 258.296 64.4186C258.957 63.2599 259.867 62.3505 261.026 61.6896C262.183 61.0287 263.478 60.6979 264.909 60.6979C266.195 60.6979 267.357 60.9743 268.399 61.5265C269.44 62.0787 270.259 62.8343 270.857 63.7942V55.3206C270.857 55.0667 270.933 54.8679 271.088 54.7234C271.241 54.5782 271.436 54.506 271.672 54.506C271.925 54.506 272.124 54.5782 272.269 54.7234ZM267.951 73.5577C268.856 73.0241 269.567 72.2949 270.083 71.3715C270.599 70.4481 270.857 69.416 270.857 68.2752C270.857 67.1344 270.599 66.1023 270.083 65.1789C269.567 64.2555 268.856 63.5317 267.951 63.0067C267.045 62.4817 266.032 62.2185 264.909 62.2185C263.786 62.2185 262.772 62.4817 261.867 63.0067C260.962 63.5317 260.247 64.2555 259.722 65.1789C259.197 66.1023 258.934 67.1344 258.934 68.2752C258.934 69.416 259.197 70.4481 259.722 71.3715C260.247 72.2949 260.962 73.0241 261.867 73.5577C262.772 74.092 263.786 74.3591 264.909 74.3591C266.032 74.3591 267.045 74.092 267.951 73.5577Z" fill="#0000A3"/>
<path d="M279.276 79.0024C278.733 79.9623 277.981 80.7133 277.021 81.2569C276.062 81.7998 274.976 82.0716 273.763 82.0716C273.509 82.0716 273.306 81.9947 273.151 81.8409C272.998 81.6864 272.921 81.4922 272.921 81.2569C272.921 81.0216 272.998 80.8228 273.151 80.6597C273.306 80.4966 273.509 80.4151 273.763 80.4151C275.139 80.4151 276.262 79.981 277.131 79.1112C278 78.2421 278.434 77.12 278.434 75.7438V61.6756C278.434 61.4224 278.511 61.2228 278.665 61.0776C278.819 60.9332 279.013 60.8602 279.249 60.8602C279.502 60.8602 279.706 60.9378 279.86 61.0916C280.014 61.2454 280.09 61.4403 280.09 61.6756V75.7438C280.09 76.9569 279.819 78.0426 279.276 79.0024ZM280.132 55.5373C280.375 55.7548 280.498 56.0631 280.498 56.4607C280.498 56.8234 280.375 57.1262 280.132 57.3709C279.887 57.6147 279.583 57.7374 279.221 57.7374C278.859 57.7374 278.56 57.6147 278.325 57.3709C278.09 57.1262 277.973 56.8234 277.973 56.4607C277.973 56.0631 278.099 55.7548 278.352 55.5373C278.606 55.3199 278.905 55.2119 279.249 55.2119C279.593 55.2119 279.887 55.3199 280.132 55.5373Z" fill="#0000A3"/>
<path d="M299.13 61.0777C299.275 61.2229 299.347 61.4217 299.347 61.6757V74.9013C299.347 75.1373 299.275 75.3315 299.13 75.4853C298.984 75.639 298.786 75.7167 298.532 75.7167C298.297 75.7167 298.102 75.639 297.949 75.4853C297.794 75.3315 297.718 75.1373 297.718 74.9013V73.4894C297.102 74.2497 296.35 74.843 295.463 75.2678C294.577 75.6942 293.607 75.9062 292.557 75.9062C291.236 75.9062 290.054 75.6352 289.014 75.0915C287.972 74.5487 287.157 73.7565 286.569 72.7151C285.98 71.6745 285.686 70.4296 285.686 68.9812V61.6757C285.686 61.4404 285.763 61.2454 285.917 61.0917C286.071 60.9379 286.266 60.8602 286.501 60.8602C286.736 60.8602 286.931 60.9379 287.085 61.0917C287.238 61.2454 287.316 61.4404 287.316 61.6757V68.9812C287.316 70.7014 287.8 72.0138 288.768 72.9194C289.737 73.8249 290.999 74.2769 292.557 74.2769C293.516 74.2769 294.39 74.0913 295.178 73.72C295.966 73.3496 296.586 72.8332 297.039 72.1723C297.491 71.5114 297.718 70.7829 297.718 69.9861V61.6757C297.718 61.4217 297.794 61.2229 297.949 61.0777C298.102 60.9325 298.297 60.8602 298.532 60.8602C298.786 60.8602 298.984 60.9325 299.13 61.0777Z" fill="#0000A3"/>
<path d="M314.935 63.1419C315.045 63.2692 315.098 63.423 315.098 63.6039C315.098 63.8571 314.953 64.0652 314.663 64.2283C314.482 64.3005 314.347 64.3371 314.256 64.3371C313.985 64.3371 313.758 64.2198 313.578 63.9837C312.654 62.8071 311.36 62.2185 309.694 62.2185C308.589 62.2185 307.711 62.4592 307.059 62.9384C306.408 63.4183 306.082 64.0109 306.082 64.7168C306.082 65.4414 306.394 66.0207 307.019 66.4556C307.643 66.8897 308.689 67.2159 310.156 67.4326C312.074 67.7044 313.456 68.2162 314.298 68.9672C315.139 69.7189 315.56 70.6291 315.56 71.6969C315.56 72.5302 315.293 73.2634 314.759 73.8971C314.225 74.5308 313.514 75.0193 312.627 75.3633C311.74 75.7073 310.771 75.8797 309.721 75.8797C308.671 75.8797 307.648 75.6941 306.652 75.3229C305.656 74.9517 304.832 74.3863 304.18 73.6253C304.053 73.4808 303.99 73.3177 303.99 73.1368C303.99 72.8828 304.109 72.6747 304.343 72.5116C304.452 72.4215 304.606 72.3765 304.805 72.3765C305.058 72.3765 305.267 72.4759 305.43 72.6747C306.335 73.779 307.793 74.3312 309.803 74.3312C311.232 74.3312 312.288 74.078 312.966 73.5709C313.645 73.0645 313.985 72.413 313.985 71.6154C313.985 70.1857 312.6 69.2708 309.83 68.8724C308.073 68.6193 306.747 68.1393 305.851 67.4326C304.954 66.7267 304.506 65.8763 304.506 64.8799C304.506 63.5589 304.991 62.5307 305.959 61.7975C306.928 61.0644 308.19 60.6979 309.748 60.6979C312.03 60.6979 313.758 61.5125 314.935 63.1419Z" fill="#0000A3"/>
<path d="M326.98 74.2909C327.134 74.4446 327.211 74.6481 327.211 74.9021C327.211 75.1374 327.134 75.3323 326.98 75.4861C326.826 75.6398 326.622 75.7167 326.369 75.7167H325.745C324.748 75.7167 323.861 75.4907 323.082 75.0372C322.304 74.5852 321.698 73.9647 321.264 73.1772C320.829 72.3897 320.611 71.4982 320.611 70.5026V62.8701H318.493C318.276 62.8701 318.099 62.8025 317.964 62.6666C317.828 62.5307 317.76 62.3544 317.76 62.137C317.76 61.9195 317.828 61.7432 317.964 61.6073C318.099 61.4722 318.276 61.4039 318.493 61.4039H320.611V56.9772C320.611 56.7233 320.688 56.5198 320.843 56.366C320.996 56.2123 321.191 56.1354 321.427 56.1354C321.68 56.1354 321.883 56.2123 322.037 56.366C322.191 56.5198 322.269 56.7233 322.269 56.9772V61.4039H325.853C326.07 61.4039 326.247 61.4722 326.382 61.6073C326.518 61.7432 326.587 61.9195 326.587 62.137C326.587 62.3544 326.518 62.5307 326.382 62.6666C326.247 62.8025 326.07 62.8701 325.853 62.8701H322.269V70.5026C322.269 71.5526 322.595 72.4076 323.246 73.0685C323.897 73.7294 324.74 74.0602 325.771 74.0602H326.369C326.622 74.0602 326.826 74.1371 326.98 74.2909Z" fill="#0000A3"/>
<path d="M340.75 61.6625C341.792 62.2868 342.602 63.152 343.181 64.2563C343.76 65.3607 344.05 66.6188 344.05 68.0306C344.05 68.2667 343.978 68.4515 343.833 68.5874C343.687 68.7234 343.498 68.7917 343.263 68.7917H331.883C331.937 69.8595 332.219 70.8148 332.725 71.6566C333.231 72.4984 333.911 73.1554 334.762 73.6253C335.613 74.0967 336.564 74.332 337.614 74.332C338.32 74.332 339.03 74.2093 339.745 73.9647C340.461 73.7208 341.027 73.3993 341.443 73.0009C341.624 72.8565 341.814 72.7834 342.013 72.7834C342.213 72.7834 342.376 72.8378 342.502 72.9465C342.702 73.1096 342.801 73.2999 342.801 73.5173C342.801 73.6983 342.72 73.8699 342.557 74.033C341.977 74.5588 341.222 74.9929 340.289 75.3369C339.356 75.681 338.465 75.8526 337.614 75.8526C336.183 75.8526 334.912 75.5319 333.798 74.8888C332.684 74.2458 331.81 73.3496 331.177 72.2002C330.543 71.0501 330.227 69.7516 330.227 68.3024C330.227 66.8362 330.52 65.5284 331.109 64.3783C331.697 63.2281 332.521 62.3319 333.581 61.6896C334.64 61.0466 335.848 60.7251 337.207 60.7251C338.528 60.7251 339.709 61.0373 340.75 61.6625ZM333.635 63.6583C332.666 64.5996 332.091 65.8406 331.91 67.3791H342.475C342.349 65.8406 341.806 64.5996 340.846 63.6583C339.886 62.7171 338.673 62.2465 337.207 62.2465C335.794 62.2465 334.603 62.7171 333.635 63.6583Z" fill="#0000A3"/>
<path d="M356.38 61.5941C356.38 61.6849 356.37 61.7572 356.353 61.8115C356.299 62.0111 356.213 62.1509 356.095 62.2325C355.976 62.314 355.818 62.3544 355.62 62.3544C355.457 62.3544 355.243 62.3365 354.981 62.3C354.718 62.2643 354.496 62.2457 354.316 62.2457C353.411 62.2457 352.605 62.4359 351.898 62.8165C351.193 63.1962 350.64 63.722 350.242 64.3914C349.844 65.0616 349.645 65.8134 349.645 66.6451V74.902C349.645 75.1373 349.572 75.3322 349.427 75.486C349.282 75.6398 349.083 75.7167 348.829 75.7167C348.595 75.7167 348.4 75.6398 348.245 75.486C348.092 75.3322 348.016 75.1373 348.016 74.902V61.6756C348.016 61.4225 348.092 61.2229 348.245 61.0776C348.4 60.9332 348.595 60.861 348.829 60.861C349.083 60.861 349.282 60.9332 349.427 61.0776C349.572 61.2229 349.645 61.4225 349.645 61.6756V63.3593C350.17 62.5268 350.839 61.8752 351.655 61.4038C352.469 60.9332 353.355 60.6979 354.316 60.6979C355.691 60.6979 356.38 60.9961 356.38 61.5941Z" fill="#0000A3"/>
<path d="M370.611 63.1419C370.72 63.2692 370.774 63.423 370.774 63.6039C370.774 63.8571 370.629 64.0652 370.339 64.2283C370.158 64.3005 370.022 64.3371 369.932 64.3371C369.66 64.3371 369.433 64.2198 369.253 63.9837C368.329 62.8071 367.035 62.2185 365.369 62.2185C364.264 62.2185 363.387 62.4592 362.734 62.9384C362.084 63.4183 361.757 64.0109 361.757 64.7168C361.757 65.4414 362.07 66.0207 362.695 66.4556C363.318 66.8897 364.365 67.2159 365.832 67.4326C367.75 67.7044 369.131 68.2162 369.973 68.9672C370.815 69.7189 371.236 70.6291 371.236 71.6969C371.236 72.5302 370.969 73.2634 370.434 73.8971C369.9 74.5308 369.19 75.0193 368.303 75.3633C367.416 75.7073 366.447 75.8797 365.397 75.8797C364.347 75.8797 363.323 75.6941 362.328 75.3229C361.332 74.9517 360.508 74.3863 359.856 73.6253C359.729 73.4808 359.666 73.3177 359.666 73.1368C359.666 72.8828 359.784 72.6747 360.019 72.5116C360.127 72.4215 360.281 72.3765 360.481 72.3765C360.734 72.3765 360.943 72.4759 361.106 72.6747C362.011 73.779 363.468 74.3312 365.478 74.3312C366.908 74.3312 367.963 74.078 368.642 73.5709C369.321 73.0645 369.66 72.413 369.66 71.6154C369.66 70.1857 368.276 69.2708 365.505 68.8724C363.749 68.6193 362.422 68.1393 361.527 67.4326C360.63 66.7267 360.182 65.8763 360.182 64.8799C360.182 63.5589 360.666 62.5307 361.635 61.7975C362.603 61.0644 363.866 60.6979 365.424 60.6979C367.705 60.6979 369.433 61.5125 370.611 63.1419Z" fill="#0000A3"/>
</svg>
